<?xml version="1.0" encoding="UTF-8"?>
<svg id="Layer_2" data-name="Layer 2" xmlns="http://www.w3.org/2000/svg" viewBox="0 0 2450.23 860.08">
  <defs>
    <style>
      .cls-1 {
        fill: #fff;
      }
    </style>
  </defs>
  <path class="cls-1" d="m2410,860.04h8.08c38.61,0,38.67-60,0-60h-761.58c-1.56,0-3.29-.21-4.85,0-5.68.79-2.91-7.53,10.03,5.45l7.72,13.24c.78,1.87-8.88,20.71-3.16,17.5,1.03-.58,2.03-2.03,2.86-2.86l11.06-11.06c14.12-14.12,28.24-28.24,42.36-42.36,47.89-47.89,95.77-95.77,143.66-143.66,62.52-62.52,125.04-125.04,187.56-187.56,62.08-62.08,124.16-124.16,186.24-186.24,47.57-47.57,95.13-95.13,142.7-142.7,13.61-13.61,27.22-27.22,40.83-40.83,8.49-8.49,18.6-16.96,23.42-28.13,12.27-28.43-11.85-50.24-39-50.78-5.09-.1-10.19,0-15.29,0h-307.97c-88.09,0-176.18,0-264.27,0-53.65,0-107.29,0-160.94,0-24.66,0-47.97,6.61-66.27,24.34-14.01,13.58-27.64,27.58-41.46,41.37-58.63,58.51-117.27,117.01-175.9,175.52-48.14,48.04-96.29,96.08-144.43,144.11-.94.94-9.05,7.42-8.86,8.84-.54-3.94,14.82-3.4,14.08.01.03-.14-.65-.57-.71-.71-.76-1.56-3.2-3.2-4.4-4.4-16.69-16.69-33.38-33.38-50.07-50.07-60.39-60.39-120.78-120.78-181.17-181.17-43.67-43.67-87.33-87.33-131-131-11.8-11.8-26.55-20.76-43.9-15.29-18.98,5.98-25.19,24.36-25.36,42.34-.16,16.52,0,33.06,0,49.58,0,72.35,0,144.69,0,217.04,0,89.83,0,179.66,0,269.49,0,64.05,0,128.09,0,192.14v20.87c0,1.68-.23,3.55,0,5.21.79,5.83-7.16,2.67,5.45-9.9,4.41-2.57,8.83-5.14,13.24-7.72,1.87-.77,20.71,8.87,17.5,3.16-.58-1.04-2.02-2.02-2.86-2.86-3.77-3.77-7.54-7.54-11.31-11.31-14.19-14.19-28.38-28.38-42.58-42.58-48.48-48.48-96.96-96.96-145.44-145.44-62.61-62.61-125.22-125.22-187.84-187.84s-124.96-124.96-187.43-187.43c-47.23-47.23-94.47-94.47-141.7-141.7-13.26-13.26-26.51-26.51-39.77-39.77-12-12-23.31-25.16-42.21-25.06C-.09,9.99,0,45.62,0,70.64,0,95.08,0,119.51,0,143.95c0,81.08,0,162.16,0,243.25s0,175.65,0,263.47C0,701.71,0,752.75,0,803.78v14.34c0,38.61,60,38.67,60,0V56.55c0-1.56.21-3.29,0-4.85-.79-5.68,7.53-2.91-5.45,10.03l-13.24,7.72c-1.87.78-20.72-8.88-17.5-3.16.58,1.03,2.02,2.02,2.86,2.86,3.77,3.77,7.54,7.54,11.31,11.31,14.19,14.19,28.38,28.38,42.58,42.58,48.23,48.23,96.46,96.46,144.69,144.69,62.58,62.58,125.16,125.16,187.75,187.75,62.51,62.51,125.02,125.02,187.54,187.54,47.18,47.18,94.36,94.36,141.54,141.54,13.32,13.32,26.65,26.65,39.97,39.97,11.57,11.57,23.01,25.31,40.93,25.76,35.96.9,37.02-34.29,37.02-60,0-24.17,0-48.34,0-72.52,0-80.44,0-160.88,0-241.32,0-87.68,0-175.36,0-263.04,0-52.12,0-104.24,0-156.36,0-1.68.23-3.55,0-5.21-.79-5.83,7.15-2.66-5.45,9.9l-13.24,7.72c-3.95,1.64-22.18-9.99-16.58-2.24,1.44,2,3.72,3.72,5.46,5.46,7.01,7.01,14.01,14.01,21.02,21.02,23.99,23.99,47.99,47.99,71.98,71.98,61.12,61.12,122.24,122.24,183.35,183.35,22.3,22.3,44.61,44.61,66.91,66.91,17.88,17.88,34.36,38.62,63.16,34.6,21.96-3.06,36.81-22.33,51.66-37.14,22.97-22.92,45.94-45.84,68.91-68.76,61.3-61.16,122.59-122.32,183.89-183.48,23.47-23.42,46.94-46.84,70.41-70.26,6.58-6.57,13.17-13.14,19.75-19.71,1.57-1.57,3.1-3.18,4.71-4.7.33-.31.64-.67.98-.97-2.3,2.09,5.38-3.48,4.46-3.06,7.22-3.31,6.73-2.4,14.4-2.4h747.21c1.72,0,3.63.24,5.34,0,5.67-.78,2.92,7.54-10.03-5.45l-7.72-13.24c-.78-1.87,8.88-20.72,3.16-17.5-1.03.58-2.02,2.02-2.86,2.86l-11.31,11.31-42.11,42.11c-48.14,48.14-96.27,96.27-144.41,144.41-62.83,62.83-125.66,125.66-188.5,188.5-62.26,62.26-124.53,124.53-186.79,186.79-47.28,47.28-94.56,94.56-141.83,141.83-13.4,13.4-26.79,26.79-40.19,40.19-10.78,10.78-23.21,21.08-25.47,37.18-3.68,26.2,19.05,40.63,42.36,41.01,5.42.09,10.86,0,16.28,0h575.7c52.62,0,105.23,0,157.85,0h7.52c38.61,0,38.67-60,0-60h-753.5c-1.56,0-3.3-.21-4.85,0-5.68.78-2.89-7.51,10.03,5.45l7.72,13.24c.78,1.87-8.88,20.71-3.16,17.5,1.03-.58,2.03-2.03,2.86-2.86l11.06-11.06c14.12-14.12,28.24-28.24,42.36-42.36,47.89-47.89,95.77-95.77,143.66-143.66,62.52-62.52,125.04-125.04,187.56-187.56s124.16-124.16,186.24-186.24c47.57-47.57,95.13-95.13,142.7-142.7,13.61-13.61,27.22-27.22,40.83-40.83,8.49-8.49,18.6-16.96,23.42-28.13,12.27-28.43-11.85-50.24-39-50.78-5.09-.1-10.19,0-15.29,0-23.37,0-46.74,0-70.11,0-79.29,0-158.57,0-237.86,0-88.09,0-176.18,0-264.27,0-53.65,0-107.29,0-160.94,0-24.66,0-47.97,6.61-66.27,24.34-14.01,13.58-27.64,27.58-41.46,41.37-58.63,58.51-117.27,117.01-175.9,175.52-48.14,48.04-96.29,96.08-144.43,144.11-.94.94-9.05,7.42-8.86,8.84-.54-3.94,14.82-3.4,14.08.01.03-.14-.65-.57-.71-.71-.76-1.56-3.2-3.2-4.4-4.4-16.69-16.69-33.38-33.38-50.07-50.07-60.39-60.39-120.78-120.78-181.17-181.17-43.67-43.67-87.33-87.33-131-131-11.8-11.8-26.55-20.76-43.9-15.29-18.98,5.98-25.19,24.36-25.36,42.34-.16,16.52,0,33.06,0,49.58,0,72.35,0,144.69,0,217.04,0,89.83,0,179.66,0,269.49,0,64.05,0,128.09,0,192.14v20.87c0,1.68-.23,3.55,0,5.21.79,5.83-7.16,2.67,5.45-9.9,4.41-2.57,8.83-5.14,13.24-7.72,1.87-.77,20.71,8.87,17.5,3.16-.58-1.04-2.02-2.02-2.86-2.86-3.77-3.77-7.54-7.54-11.31-11.31-14.19-14.19-28.38-28.38-42.58-42.58-48.48-48.48-96.96-96.96-145.44-145.44-62.61-62.61-125.22-125.22-187.84-187.84-62.48-62.48-124.96-124.96-187.43-187.43-47.23-47.23-94.47-94.47-141.7-141.7-13.26-13.26-26.51-26.51-39.77-39.77-12-12-23.31-25.16-42.21-25.06C-.09,9.99,0,45.62,0,70.64,0,95.08,0,119.51,0,143.95c0,81.08,0,162.16,0,243.25s0,175.65,0,263.47C0,701.71,0,752.75,0,803.78v14.34c0,38.61,60,38.67,60,0V56.55c0-1.56.21-3.29,0-4.85-.79-5.68,7.53-2.91-5.45,10.03l-13.24,7.72c-1.87.78-20.72-8.88-17.5-3.16.58,1.03,2.02,2.02,2.86,2.86l11.31,11.31c14.19,14.19,28.38,28.38,42.58,42.58,48.23,48.23,96.46,96.46,144.69,144.69,62.58,62.58,125.16,125.16,187.75,187.75,62.51,62.51,125.02,125.02,187.54,187.54,47.18,47.18,94.36,94.36,141.54,141.54,13.32,13.32,26.65,26.65,39.97,39.97,11.57,11.57,23.01,25.31,40.93,25.76,35.96.9,37.02-34.29,37.02-60,0-24.17,0-48.34,0-72.52,0-80.44,0-160.88,0-241.32,0-87.68,0-175.36,0-263.04,0-52.12,0-104.24,0-156.36,0-1.68.23-3.55,0-5.21-.79-5.83,7.15-2.66-5.45,9.9l-13.24,7.72c-3.95,1.64-22.18-9.99-16.58-2.24,1.44,2,3.72,3.72,5.46,5.46,7.01,7.01,14.01,14.01,21.02,21.02,23.99,23.99,47.99,47.99,71.98,71.98,61.12,61.12,122.24,122.24,183.35,183.35,22.3,22.3,44.61,44.61,66.91,66.91,17.88,17.88,34.36,38.62,63.16,34.6,21.96-3.06,36.81-22.33,51.66-37.14,22.97-22.92,45.94-45.84,68.91-68.76,61.3-61.16,122.59-122.32,183.89-183.48,23.47-23.42,46.94-46.84,70.41-70.26,6.58-6.57,13.17-13.14,19.75-19.71,1.57-1.57,3.1-3.18,4.71-4.7.33-.31.64-.67.98-.97-2.3,2.09,5.38-3.48,4.46-3.06,7.22-3.31,6.73-2.4,14.4-2.4h747.21c1.72,0,3.63.24,5.34,0,5.67-.78,2.92,7.54-10.03-5.45l-7.72-13.24c-.77-1.87,8.87-20.71,3.16-17.5-1.04.58-2.02,2.02-2.86,2.86l-11.31,11.31-42.58,42.58c-48.48,48.48-96.96,96.96-145.44,145.44-62.61,62.61-125.22,125.22-187.84,187.84s-124.96,124.96-187.43,187.43c-47.23,47.23-94.47,94.47-141.7,141.7l-39.77,39.77c-12,12-25.16,23.31-25.06,42.21.18,35.13,35.81,35.04,60.84,35.04,24.44,0,48.87,0,73.31,0h674.18c38.61,0,38.67-60,0-60h-8.08c-38.61,0-38.67,60,0,60Z"/>
</svg>